Patient4_TMGait_0pt7_02_left_12_EMG.mot
version=1
nRows=33
nColumns=33
inDegrees=no
endheader
time	1LAddLong	2LGlutMax	3LGlutMed	4LIliopsoas	5LSemiMemb	6LBicFemLong	7LRecFem	8LVastMed	9LVastLat	10LGasMed	11LTibAnt	12lTibPost	13LPeroneusLong	14LSol	15LExtDigLong	16LFlexDigLong	17RAddLong	18RGlutMax	19RGlutMed	20RIliopsoas	21RSemiMemb	22RBicFemLong	23RRecFem	24RVastMed	25RVastLat	26RGasMed	27RTibAnt	28RTibPost	29RPeroneusLong	30RSol	31RExtDigLong	32RFlexDigLong
13.795	-0.001831	0.54108	-0.21194	0.006866	-0.1532	0.014648	-0.17105	0.035095	-0.31769	-0.052643	0.013885	0.011902	0.057831	-0.007782	0.19226	0.072784	-0.038605	-0.66879	-0.36209	-0.043335	-0.1059	-0.13321	0.90027	-0.050049	-0.027008	0.000305	-0.18631	-0.004578	0.14679	0.055389	-0.00061	-0.019531
13.796	0.006561	0.52643	-0.13229	0.008545	-0.15915	-0.063171	-0.27496	0.041656	-0.24139	-0.053406	-0.010834	0.024567	0.034332	-0.056458	0.11414	0.06134	0.019379	-0.64743	-0.53757	-0.097961	-0.11856	-0.16693	0.93292	-0.17288	-0.040131	-0.007019	-0.49027	-0.007782	0.27542	0.028534	0.002899	-0.026703
13.797	0.014343	0.51804	0.14435	0.00824	-0.14206	-0.013428	-0.35996	0.038147	-0.16434	-0.054016	-0.01297	0.022278	-0.001678	-0.071106	0.062561	0.066833	0.033875	-0.64224	-0.84335	-0.01236	-0.16281	-0.18662	0.9671	-0.22385	-0.012207	-0.018463	-0.13214	0.00061	0.25406	0.009918	0.000458	-0.023041
13.798	0.022125	0.47531	0.1442	0.023804	-0.16663	0.014954	-0.44403	0.03952	-0.15091	-0.006866	0.014191	0.022125	-0.011902	-0.041199	0.038147	0.080872	-0.032654	-0.67215	-0.85693	0.21423	-0.18601	-0.20523	1.0951	-0.1268	0.021057	-0.016937	0.36194	-0.003967	0.081177	-0.004578	0.013275	-0.019073
13.799	0.032501	0.42175	0.1532	0.00473	-0.13092	-0.091248	-0.48096	0.02655	-0.15808	0.01358	0.027466	0.036316	-0.012512	-0.023041	0.027161	0.070496	-0.04364	-0.66025	-0.94574	0.40787	-0.18662	-0.18585	1.1217	-0.093689	0.059052	-0.011749	0.41061	-0.002136	0.050201	-0.003662	0.003052	-0.020752
13.8	0.04837	0.3865	0.022736	0.019379	0.017395	-0.15671	-0.50705	0.020142	-0.16846	0.027771	0.029755	0.02655	0.037079	-0.014648	0.006104	0.042267	-0.066223	-0.66025	-0.88425	0.49072	-0.1532	-0.11795	1.0947	-0.11627	0.034943	-0.015869	0.70175	-0.000305	-0.14328	-0.02533	-0.000153	-0.024872
13.801	0.042572	0.42893	0.006561	0.000763	0.11581	0.078583	-0.4953	0.019531	-0.16525	0.026398	0.036163	0.036926	0.025787	0.052795	-0.026855	0.032654	-0.006104	-0.6485	-0.89035	0.51163	-0.10864	-0.025482	1.1694	-0.15701	0.033875	-0.01358	0.60928	-0.007935	-0.22125	-0.077667	-0.000458	-0.021515
13.802	0.041351	0.5397	-0.031891	-0.008392	0.045624	0.35141	-0.49377	0.002747	-0.1593	0.014648	0.042267	0.04776	-0.015106	0.091705	-0.060577	0.052185	0.000458	-0.65872	-0.952	0.33081	-0.065308	-0.000153	1.1452	-0.13382	0.032043	-0.009155	0.40909	0.000305	-0.15793	-0.10101	-0.000153	-0.030975
13.803	0.04303	0.63004	0.003815	-0.028687	0.040894	0.2562	-0.53299	-0.022583	-0.097656	0.001221	0.040131	0.047302	0.010376	0.056305	-0.054016	0.083466	-0.023651	-0.67505	-0.98068	0.074463	-0.042877	0.022583	0.95032	-0.16266	-0.003815	0.000763	0.2388	0.000305	-0.076599	-0.047913	0.005951	-0.03067
13.804	0.037842	0.67749	-0.013733	-0.002136	0.092926	0.17242	-0.49698	-0.010223	-0.041809	0.010529	0.030365	0.051727	0.047607	0.03418	-0.044556	0.085907	-0.072327	-0.63889	-0.98129	-0.097961	-0.0383	0.061798	0.7695	-0.16907	-0.002136	0.009308	0.081787	-0.004425	-0.028534	-0.092468	0.001984	-0.031586
13.805	0.020447	0.73425	-0.003357	0.011597	0.10574	0.074921	-0.44464	0.001984	0.036316	0.030823	0.020599	0.044098	0.048218	-0.053711	-0.03067	0.041962	-0.12329	-0.63263	-0.85556	-0.22888	-0.035095	0.1329	0.60242	-0.081329	0.02533	0.016479	-0.50659	-0.001831	0.095367	-0.14496	0.001526	-0.028839
13.806	0.032806	0.70511	0.098877	0.036011	0.075073	0.014191	-0.46478	0.005798	0.14023	0.057068	0.027618	0.060272	0.03067	-0.15808	-0.028534	0.036621	-0.17761	-0.54367	-0.72479	-0.23789	0.001526	0.18295	0.45883	0.029144	0.049133	0.020294	-0.90759	-0.000458	0.16068	-0.25146	0.003967	-0.03067
13.807	0.035706	0.61813	0.096436	0.022888	0.034637	-0.059662	-0.48141	0.010223	0.17212	0.078583	0.031433	0.052643	0.017395	-0.11398	-0.029907	0.026855	-0.13733	-0.52887	-0.66895	-0.20599	-0.007477	0.13779	0.30746	0.054321	0.030975	0.013275	-0.51315	-0.001984	-0.009613	-0.22339	0.002136	-0.035858
13.808	0.023956	0.60699	-0.049286	-0.01297	-0.018158	-0.053253	-0.4985	0.009766	0.061646	0.050659	0.024872	0.049286	0.016174	-0.030823	-0.026703	0.033722	-0.1236	-0.45502	-0.67886	-0.23651	-0.016937	0.061646	0.33814	0.058136	0.010223	0.00473	-0.16174	-0.001526	-0.15045	-0.168	0.007629	-0.029907
13.809	0.017853	0.54916	-0.19775	-0.01709	-0.015564	0.10986	-0.51376	0.003815	-0.10666	0.05127	0.023346	0.055695	0.026398	0.003967	-0.023193	0.026398	-0.1059	-0.31494	-0.83298	-0.24017	-0.007629	0.11063	0.39185	0.098877	0.018616	-0.003052	-0.097046	-0.000153	-0.10269	-0.086365	0.002136	-0.031586
13.81	0.020905	0.50003	-0.19867	-0.032959	-0.066071	0.22186	-0.51636	0.00824	-0.12558	0.05249	0.019989	0.051575	0.096283	0.015106	-0.006256	0.027008	-0.034637	-0.17258	-0.061493	-0.22324	-0.021973	0.14267	0.45975	0.098267	0.013885	-0.000153	-0.10712	-0.001831	-0.030823	0.006409	0.001068	-0.024719
13.811	0.006866	0.36057	-0.086517	-0.005798	-0.099792	0.19394	-0.47913	0.004272	-0.056915	0.085449	0.010529	0.049438	0.14786	0.031433	-0.017395	0.018158	0.011292	-0.097656	-0.77667	-0.10452	-0.037994	0.12833	0.62256	0.10681	0.003204	-0.003662	-0.080872	-0.001984	-0.023956	0.048828	0.000458	-0.023041
13.812	-0.009918	0.27588	0.095673	0.005798	-0.12604	0.10239	-0.44052	0.003662	0.049591	0.10223	0.006714	0.045776	0.20447	0.027924	-0.007477	0.019989	0.12116	-0.012054	-0.88104	-0.058136	-0.001068	0.10513	0.84671	0.11398	0.00351	-0.00412	-0.000153	-0.006561	0.042877	0.065918	0.000458	-0.023804
13.813	-0.010986	0.19791	0.12619	0.03067	-0.058746	0.1149	-0.42068	-0.001831	0.080109	0.11932	0.042725	0.035858	0.088806	0.043945	0.012817	0.014648	0.17105	0.073547	-1.0767	0.097809	0.029449	0.14008	1.0536	0.17242	0.008087	0.004883	0.018311	0.000763	0.083313	0.053101	0.000153	-0.020142
13.814	-0.002747	0.10407	-0.056152	0.014191	-0.039215	0.1767	-0.39475	0.000153	0.11398	0.095062	-0.006714	0.029144	-0.32883	0.003357	0.038452	0.010376	0.19898	0.099487	-1.1972	0.14069	0.034332	0.16754	1.059	0.12878	0.02121	-0.003204	0.26733	0.000153	-0.10849	0.028381	-0.000153	-0.024109
13.815	-0.007172	0.025787	-0.25101	-0.002594	-0.006104	0.083466	-0.37521	0.000763	0.18234	0.085754	-0.042419	0.025787	-0.17502	-0.001984	0.060883	0.012665	0.14664	0.14603	-1.1559	0.016785	-0.000305	0.14038	0.91003	0.054169	0.023193	-0.005188	0.26489	0.00412	-0.17242	-0.00946	0.001831	-0.019684
13.816	-0.014191	0.029907	-0.21286	-0.023651	-0.032196	0.034332	-0.30807	-0.004578	0.27817	0.052338	-0.010834	0.02182	0.072174	-0.052338	0.051117	-0.003357	0.07782	0.25467	-1.024	0.022583	-0.057983	0.10239	0.81085	-0.11429	0.028839	0.003967	0.36072	-0.001831	-0.15762	-0.005493	-0.002289	-0.016632
13.817	-0.00885	0.048981	-0.11948	-0.010529	0.00885	0.11154	-0.327	-0.003052	0.22522	0.024414	0.067291	0.024261	0.051727	-0.094147	-0.055542	0.010986	0.062103	0.44373	-0.60074	-0.010376	-0.10834	0.092773	0.88501	-0.098724	0.020447	-0.006104	0.29816	-0.00473	-0.11841	-0.038452	-0.002289	-0.015411
13.818	-0.00885	0.011139	-0.001678	-0.044861	0.022888	0.045319	-0.36301	-0.000305	0.00473	-0.037994	0.079346	0.006256	-0.009003	-0.073853	-0.088501	0.003662	-0.014954	0.5188	-0.9259	0.031433	-0.14145	0.13214	0.92255	-0.17334	-0.013428	-0.002441	0.16464	-0.002594	-0.076904	-0.092621	0.002747	-0.010681
13.819	-0.01236	-0.039368	0.064697	-0.012665	-0.013275	-0.086212	-0.39642	0.018005	-0.20508	-0.040588	0.02533	0.00885	-0.093842	-0.057068	-0.2005	0.002136	-0.09491	0.57602	-1.0535	0.12039	-0.15869	0.14496	0.89294	-0.14984	-0.038452	-0.001221	0.055847	-0.001221	-0.012817	-0.049286	-0.005798	-0.010681
13.82	-0.003357	-0.02594	0.23193	0	-0.063782	-0.12116	-0.39902	0.027771	-0.027466	0.006409	-0.005646	0.010986	-0.069885	-0.010986	-0.23621	-0.018463	-0.049744	0.62546	-0.76782	0.15335	-0.16434	0.11459	0.88409	-0.14069	-0.03479	-0.000916	-0.016632	-0.005035	-0.016022	-0.056763	0.002289	-0.005798
13.821	0.022583	-0.052032	0.11963	0.006104	-0.08255	-0.29053	-0.4039	0.041656	-0.001373	0.009308	-0.001678	-0.014801	-0.010834	0.089111	-0.11383	-0.019226	0.034943	0.73166	-0.83878	0.075836	-0.18219	0.103	0.79804	-0.14847	-0.038452	-0.002747	0.43045	-0.003357	-0.081787	-0.12817	0.002136	0.000153
13.822	0.031433	-0.081787	0.12528	-0.00412	-0.051117	-0.18295	-0.27786	0.022278	-0.13916	-0.010986	0.016174	-0.005188	0.000916	0.10544	-0.011749	-0.042572	0.041809	0.88394	-0.89691	0.066681	-0.21194	0.072174	0.66589	-0.16205	-0.043488	-0.002899	0.18921	-0.007629	0.03067	-0.20111	0.001068	-0.00885
13.823	0.033722	-0.052948	0.077515	-0.006561	0.003204	-0.11856	-0.24704	0.007629	-0.15396	-0.001068	0.021515	-0.020905	-0.053558	0.11398	0.007324	-0.78552	0.036926	0.97412	-1.1711	0.070648	-0.22339	0.063171	0.59372	-0.19012	-0.048523	-0.009308	-0.49118	-0.005798	0.027924	-0.16892	-0.001068	-0.012207
13.824	0.024567	-0.006104	-0.008392	0.001984	-0.010223	-0.023651	-0.24399	0.009918	-0.018921	-0.024567	-0.016479	-0.011902	-0.063324	0.12253	0.046082	0.62103	0.038605	1.1954	-1.1247	0.033112	-0.24262	0.036469	0.52475	-0.24277	-0.026703	-0.010376	-0.60303	-0.009308	-0.010071	-0.12039	0.001984	-0.010986
13.825	0.012817	0.026703	-0.11658	0.00824	-0.078583	0.079193	-0.18356	-0.004272	0.14069	0.042877	-0.038147	-0.019073	-0.12177	0.074615	0.016327	0.17227	0.036926	1.4084	-1.0237	0.064697	-0.22232	0.091858	0.32623	-0.26718	-0.033875	0.00351	-0.18997	-0.010376	0.078583	-0.12528	-0.001068	-0.001831
13.826	0.001984	0.12772	-0.063324	0.020905	-0.1741	0.15106	-0.19455	-0.006866	0.15884	0.04715	-0.048981	-0.025024	-0.096436	0.039825	-0.002899	-0.6868	0.045013	1.6728	-0.94406	0.093231	-0.20142	0.095215	0.31464	-0.1828	-0.041351	0.003357	-0.093994	-0.019379	0.085297	-0.029144	0.002136	-0.002594
13.827	-0.002747	0.23422	0.037079	-0.001068	-0.21576	0.16007	-0.22034	-0.003662	0.15533	0.056763	-0.039673	-0.016632	-0.097351	0.025482	-0.013733	0.10696	0.032196	1.8817	-0.73669	0.10925	-0.21668	0.080261	0.42389	-0.20844	-0.020447	-0.003052	-0.003967	-0.012207	0.014191	0.017853	-0.002594	-0.001984
